<svg id="visual" viewBox="0 0 900 600" width="900" height="600" xmlns="http://www.w3.org/2000/svg" xmlns:xlink="http://www.w3.org/1999/xlink" version="1.1"><rect x="0" y="0" width="900" height="600" fill="#f8f9fc"></rect><path d="M127 0L127.5 7.7C128 15.3 129 30.7 141.5 46C154 61.3 178 76.7 184.5 92C191 107.3 180 122.7 176.8 138.2C173.7 153.7 178.3 169.3 174.3 184.8C170.3 200.3 157.7 215.7 146 231C134.3 246.3 123.7 261.7 132.2 277C140.7 292.3 168.3 307.7 170.8 323C173.3 338.3 150.7 353.7 150.3 369C150 384.3 172 399.7 186.3 415.2C200.7 430.7 207.3 446.3 204.2 461.8C201 477.3 188 492.7 183.3 508C178.7 523.3 182.3 538.7 174.8 554C167.3 569.3 148.7 584.7 139.3 592.3L130 600L0 600L0 592.3C0 584.7 0 569.3 0 554C0 538.7 0 523.3 0 508C0 492.7 0 477.3 0 461.8C0 446.3 0 430.7 0 415.2C0 399.7 0 384.3 0 369C0 353.7 0 338.3 0 323C0 307.7 0 292.3 0 277C0 261.7 0 246.3 0 231C0 215.7 0 200.3 0 184.8C0 169.3 0 153.7 0 138.2C0 122.7 0 107.3 0 92C0 76.7 0 61.3 0 46C0 30.7 0 15.3 0 7.7L0 0Z" fill="#e74a3b"></path><path d="M67 0L70.2 7.7C73.3 15.3 79.7 30.7 88.5 46C97.3 61.3 108.7 76.7 112.2 92C115.7 107.3 111.3 122.7 105.7 138.2C100 153.7 93 169.3 97.5 184.8C102 200.3 118 215.7 115.5 231C113 246.3 92 261.7 91.2 277C90.3 292.3 109.7 307.7 106.7 323C103.7 338.3 78.3 353.7 70 369C61.7 384.3 70.3 399.7 82.5 415.2C94.7 430.7 110.3 446.3 116.2 461.8C122 477.3 118 492.7 109.7 508C101.3 523.3 88.7 538.7 81.7 554C74.7 569.3 73.3 584.7 72.7 592.3L72 600L0 600L0 592.3C0 584.7 0 569.3 0 554C0 538.7 0 523.3 0 508C0 492.7 0 477.3 0 461.8C0 446.3 0 430.7 0 415.2C0 399.7 0 384.3 0 369C0 353.7 0 338.3 0 323C0 307.7 0 292.3 0 277C0 261.7 0 246.3 0 231C0 215.7 0 200.3 0 184.8C0 169.3 0 153.7 0 138.2C0 122.7 0 107.3 0 92C0 76.7 0 61.3 0 46C0 30.7 0 15.3 0 7.7L0 0Z" fill="#4e73df"></path></svg>