<svg xmlns="http://www.w3.org/2000/svg" xmlns:xlink="http://www.w3.org/1999/xlink" id="visual" width="900" height="600" version="1.1" viewBox="0 0 900 600"><rect width="900" height="600" x="0" y="0" fill="#f8f9fc"/><path fill="#3eb9c0" stroke-linecap="round" stroke-linejoin="miter" d="M80 0L79.5 14.3C79 28.7 78 57.3 76.8 85.8C75.7 114.3 74.3 142.7 78.5 171.2C82.7 199.7 92.3 228.3 93.2 257C94 285.7 86 314.3 81.3 343C76.7 371.7 75.3 400.3 83 428.8C90.7 457.3 107.3 485.7 112.8 514.2C118.3 542.7 112.7 571.3 109.8 585.7L107 600L0 600L0 585.7C0 571.3 0 542.7 0 514.2C0 485.7 0 457.3 0 428.8C0 400.3 0 371.7 0 343C0 314.3 0 285.7 0 257C0 228.3 0 199.7 0 171.2C0 142.7 0 114.3 0 85.8C0 57.3 0 28.7 0 14.3L0 0Z"/></svg>